<svg width="583" height="364" viewBox="0 0 583 364" fill="none" xmlns="http://www.w3.org/2000/svg">
<g clip-path="url(#clip0)">
<rect width="583" height="364" fill="white"/>
<path d="M330.034 363.636H461.426C547.364 363.636 582.875 321.733 582.875 267.045C582.875 209.517 543.102 178.267 509.722 176.136V172.585C540.972 164.063 568.67 143.466 568.67 96.5909C568.67 43.3239 533.159 0 457.165 0H330.034L330.034 363.636ZM374.068 324.574V198.153H463.557C511.142 198.153 540.972 230.114 540.972 267.045C540.972 299.006 518.955 324.574 461.426 324.574H374.068ZM374.068 159.801V39.0625H457.165C505.46 39.0625 526.767 64.6307 526.767 96.5909C526.767 134.943 495.517 159.801 455.744 159.801H374.068Z" fill="#1A202C"/>
<path d="M288.386 0H245.062V286.222H241.511L42.6477 0H0.0340576L0.0340576 363.636H44.0681V78.125H47.6193L245.773 363.636H288.386V0Z" fill="#1A202C"/>
<rect y="152" width="583" height="60" fill="white"/>
</g>
<defs>
<clipPath id="clip0">
<rect width="583" height="364" fill="white"/>
</clipPath>
</defs>
</svg>
